<svg width="22" height="20" viewBox="0 0 22 20" fill="none" xmlns="http://www.w3.org/2000/svg">
<path id="Vector" d="M1 7H20.3485M16.0489 11.0014L5.29967 11M8.8827 15.0005L5.29967 15M5.29967 1V3M16.0489 1V3M4.43974 19H16.9088C18.1128 19 18.7149 19 19.1747 18.782C19.5792 18.5903 19.9081 18.2843 20.1142 17.908C20.3485 17.4802 20.3485 16.9201 20.3485 15.8V6.2C20.3485 5.07989 20.3485 4.51984 20.1142 4.09202C19.9081 3.71569 19.5792 3.40973 19.1747 3.21799C18.7149 3 18.1128 3 16.9088 3H4.43974C3.23572 3 2.6337 3 2.17383 3.21799C1.76931 3.40973 1.44043 3.71569 1.23432 4.09202C1 4.51984 1 5.07989 1 6.2V15.8C1 16.9201 1 17.4802 1.23432 17.908C1.44043 18.2843 1.76931 18.5903 2.17383 18.782C2.6337 19 3.23571 19 4.43974 19Z" stroke="white" stroke-width="2" stroke-linecap="round" stroke-linejoin="round"/>
</svg>
